<mxfile host="app.diagrams.net" modified="2023-06-28T08:42:24.530Z" agent="Mozilla/5.0 (Macintosh; Intel Mac OS X 10_15_7) AppleWebKit/537.36 (KHTML, like Gecko) Chrome/114.0.0.0 Safari/537.36" version="21.3.7" etag="XvSHxwj8MZs_4MAFlA_r" type="github">
  <diagram name="ページ1" id="vmA6kSe9gHDz4Sqyiq_Y">
    <mxGraphModel>
      <root>
        <mxCell id="0" />
        <mxCell id="1" parent="0" />
      </root>
    </mxGraphModel>
  </diagram>
</mxfile>
